<svg width="90" height="32" viewBox="0 0 90 32" fill="none" xmlns="http://www.w3.org/2000/svg">
<path d="M11.7209 21.9858C10.12 21.9858 9.35046 20.7497 9.75232 19.3197C10.582 16.3559 15.913 11.964 19.5459 11.964C22.1951 11.964 21.9934 14.3448 20.4404 16.3755L19.5819 17.3299C16.5028 20.3645 13.6484 21.9858 11.7209 21.9858ZM24.7056 2C20.0691 2.00181 14.9635 4.85057 11.7569 7.54852L12.01 7.91705C16.9871 4.41297 23.8932 2.13454 25.797 5.55218C26.8023 7.35504 25.0959 10.9962 22.6927 13.8739C23.2674 12.603 22.8879 10.1629 19.5369 10.1629C13.9664 10.1629 3 17.5743 3 25.1593C3 28.1976 5.09858 30.1799 8.55539 30.1799C17.8081 30.1799 30.3564 14.9469 30.3564 7.29609C30.3564 4.59343 28.8084 2 24.7056 2Z" fill="white"/>
<path d="M36.6168 21.986C36.0781 21.986 35.6298 21.7973 35.3493 21.4526C35.0569 21.0913 34.9698 20.5792 35.1084 20.0505C35.4163 18.9033 36.6474 18.002 37.9135 18.002H40.8914L39.8274 21.986H36.6168ZM45.1753 10.0427C44.3237 8.99102 42.945 8.52051 41.9583 8.52051H36.547L35.6284 11.9613H40.7319L41.2209 12.013C41.2259 12.013 41.6894 12.0673 41.9479 12.4166C42.1567 12.7088 42.1874 13.1428 42.0372 13.7121L41.7959 14.6177H38.5804C35.8128 14.6177 31.9545 16.6118 31.0942 19.8327C30.6664 21.4388 31.0413 22.8301 31.8724 23.8525C32.6969 24.8673 34.2532 25.4276 35.9345 25.4276H38.9124H38.9106H42.6954L44.4706 18.7691L45.7774 13.8748C46.2905 11.9505 45.7345 10.7281 45.1753 10.0427Z" fill="white"/>
<path d="M82.3474 8.52051C80.8833 8.52051 79.5229 8.95558 78.4167 9.77907C77.2997 10.6098 76.6836 11.608 76.3163 12.9848C75.5194 15.9688 77.8542 17.4089 79.7303 18.4299C81.0759 19.1619 82.2397 19.7933 81.9877 20.7286C81.8098 21.3998 81.5177 21.9871 79.8624 21.9871H74.8094L73.8926 25.4276H79.4858C80.9855 25.4276 82.3697 25.114 83.4849 24.254C84.6012 23.3911 85.232 22.1889 85.622 20.7217C85.9965 19.3253 85.7441 17.9915 84.8493 16.9963C84.1035 16.1605 83.0308 15.58 82.0856 15.0672C80.8743 14.4126 79.7321 13.7949 79.9316 13.0463C80.0536 12.5931 80.5012 11.9613 81.4796 11.9613H86.3951L87.314 8.52051H82.3474Z" fill="white"/>
<path d="M53.0242 8.52051C51.5605 8.52051 50.2004 8.95558 49.0939 9.77907C47.9769 10.6098 47.3608 11.608 46.9899 12.9848C46.1949 15.9688 48.5315 17.4089 50.4071 18.4299C51.7535 19.1619 52.9144 19.7933 52.6649 20.7286C52.4852 21.3998 52.1946 21.9871 50.5393 21.9871H45.4869L44.5684 25.4276H50.1612C51.6628 25.4276 53.0466 25.114 54.1617 24.254C55.2798 23.3911 55.9092 22.1889 56.2992 20.7217C56.6723 19.3253 56.4195 17.9915 55.5283 16.9963C54.7825 16.1605 53.708 15.58 52.761 15.0672C51.5515 14.4126 50.4107 13.7949 50.6106 13.0463C50.7305 12.5931 51.1799 11.9613 52.1564 11.9613H57.0691L57.9895 8.52051H53.0242Z" fill="white"/>
<path d="M60.6564 8.52051L56.2695 25.4276H59.9759L64.3592 8.52051H60.6564Z" fill="white"/>
<path d="M74.2176 8.52051C67.6925 8.54402 64.2778 12.9085 63.1939 16.9742C61.9099 21.7951 64.465 25.4279 69.1378 25.4279H72.2691L73.1859 21.9875H70.0557C68.3068 21.9875 65.9018 20.6052 66.8711 16.9742C67.641 14.0882 70.4428 11.9617 73.5161 11.9617H75.5045L76.4231 8.52087L74.2176 8.52051Z" fill="white"/>
</svg>
