<svg width="90" height="27" viewBox="0 0 150 27" fill="none" xmlns="http://www.w3.org/2000/svg">
<g clip-path="url(#clip0_162_2710)">
<path d="M32.7557 5.97952C27.6698 5.97952 23.6959 9.83897 23.6959 15.0056C23.6959 20.1723 27.5694 23.9987 32.7557 23.9987C37.942 23.9987 41.8828 20.1063 41.8828 14.9726C41.8828 9.872 38.0093 5.97952 32.7557 5.97952ZM32.79 20.2752C29.8938 20.2752 27.7715 18.0266 27.7715 15.0069C27.7715 11.9529 29.8595 9.70557 32.7557 9.70557C35.6862 9.70557 37.8073 11.9872 37.8073 15.0069C37.8073 18.0266 35.6862 20.2752 32.79 20.2752ZM42.9935 9.9063H45.5199V23.6646H49.5612V6.31491H42.9935V9.9063ZM13.5255 9.70431C15.6477 9.70431 17.3316 11.0128 17.9708 12.959H22.2484C21.4732 8.79852 18.0382 5.97952 13.5598 5.97952C8.47389 5.97952 4.5 9.83897 4.5 15.0069C4.5 20.1749 8.3735 24 13.5598 24C17.9378 24 21.4402 21.181 22.2154 16.9862H17.9708C17.3646 18.9324 15.6808 20.2752 13.5585 20.2752C10.628 20.2752 8.57429 18.0266 8.57429 15.0069C8.57556 11.9529 10.5962 9.70431 13.5255 9.70431ZM119.78 13.3287L116.816 12.893C115.402 12.6923 114.391 12.2222 114.391 11.1144C114.391 9.9063 115.705 9.30286 117.49 9.30286C119.443 9.30286 120.69 10.1413 120.959 11.5172H124.866C124.427 8.02739 121.733 5.98079 117.591 5.98079C113.314 5.98079 110.485 8.16205 110.485 11.2491C110.485 14.2015 112.338 15.914 116.075 16.4501L119.039 16.8858C120.488 17.0865 121.296 17.6582 121.296 18.7317C121.296 20.1075 119.881 20.6779 117.928 20.6779C115.536 20.6779 114.189 19.7048 113.987 18.2286H110.013C110.385 21.618 113.044 24 117.894 24C122.306 24 125.235 21.9864 125.235 18.5297C125.235 15.4427 123.114 13.8318 119.78 13.3287ZM47.5406 -0.832309C46.0588 -0.832309 44.9468 0.241171 44.9468 1.71736C44.9468 3.19356 46.0575 4.26704 47.5406 4.26704C49.0223 4.26704 50.1343 3.19356 50.1343 1.71736C50.1343 0.241171 49.0223 -0.832309 47.5406 -0.832309ZM106.848 12.2552C106.848 8.49743 104.558 5.98079 99.7082 5.98079C95.1282 5.98079 92.5687 8.29671 92.0629 11.8538H96.0711C96.2732 10.478 97.3508 9.33716 99.6409 9.33716C101.696 9.33716 102.706 10.243 102.706 11.3507C102.706 12.7939 100.853 13.1623 98.5632 13.3973C95.4649 13.7327 91.6257 14.8062 91.6257 18.8333C91.6257 21.9547 93.9501 23.967 97.6546 23.967C100.551 23.967 102.369 22.7588 103.279 20.8456C103.414 22.5568 104.694 23.6646 106.479 23.6646H108.837V20.0745H106.849V12.2552H106.848ZM102.874 16.6178C102.874 18.9337 100.853 20.6449 98.3942 20.6449C96.8781 20.6449 95.5984 20.0072 95.5984 18.6656C95.5984 16.9544 97.6533 16.4844 99.5392 16.2837C101.358 16.116 102.368 15.7132 102.874 14.9409V16.6178ZM81.421 5.97952C79.164 5.97952 77.278 6.91961 75.931 8.49616V-1H71.8897V23.6646H75.8636V21.383C77.2107 23.0269 79.1309 24 81.421 24C86.2705 24 89.9419 20.1749 89.9419 15.0069C89.9419 9.83897 86.2031 5.97952 81.421 5.97952ZM80.8148 20.2752C77.9185 20.2752 75.7963 18.0266 75.7963 15.0069C75.7963 11.9872 77.9516 9.70557 80.8478 9.70557C83.7784 9.70557 85.832 11.9542 85.832 15.0069C85.832 18.0266 83.711 20.2752 80.8148 20.2752ZM62.2238 5.97952C59.5969 5.97952 57.8788 7.053 56.8685 8.56349V6.31491H52.8603V23.6633H56.9015V14.2345C56.9015 11.5832 58.5854 9.70431 61.0775 9.70431C63.4018 9.70431 64.8493 11.3482 64.8493 13.7314V23.6646H68.8905V13.4304C68.8918 9.06657 66.6361 5.97952 62.2238 5.97952ZM144.5 14.4365C144.5 9.47055 140.863 5.98079 135.979 5.98079C130.793 5.98079 126.987 9.87327 126.987 15.0069C126.987 20.4099 131.062 24 136.046 24C140.257 24 143.557 21.5164 144.398 17.9936H140.188C139.582 19.5371 138.1 20.4099 136.113 20.4099C133.519 20.4099 131.565 18.799 131.128 15.98H144.499V14.4365H144.5ZM131.365 13.0937C132.005 10.6774 133.824 9.50358 135.912 9.50358C138.202 9.50358 139.953 10.8121 140.357 13.0937H131.365Z" fill="white"/>
</g>
<defs>
<clipPath id="clip0_162_2710">
<rect width="150" height="27" fill="white"/>
</clipPath>
</defs>
</svg>