<svg width="190" height="37" viewBox="0 0 190 37" fill="none" xmlns="http://www.w3.org/2000/svg">
<path d="M30.4578 6.38255C32.8102 5.91738 35.3288 5.74733 37.6093 6.62638C38.7203 7.09874 39.8079 7.76005 40.5073 8.77226C41.5644 10.184 41.7253 12.0707 41.514 13.7685C40.9783 16.9887 39.1895 19.8508 37.0448 22.2504C35.9653 23.3634 34.9037 24.516 33.6381 25.4229C33.6318 23.7386 33.5518 22.0498 33.6515 20.3682C34.2169 19.5449 34.9927 18.8917 35.5661 18.0729C36.8273 16.3679 37.9617 14.4397 38.1531 12.2804C38.2826 11.368 38.0524 10.4233 37.5626 9.64861C36.8497 8.59861 35.612 8.04887 34.3859 7.89142C32.0632 7.51173 29.7369 8.16674 27.5832 8.9954C23.887 10.5106 20.5369 12.8535 17.8304 15.7921C16.3005 17.4611 14.99 19.4036 14.3769 21.6044C14.181 22.452 14.0488 23.3409 14.2187 24.2056C14.376 24.9676 14.963 25.6964 15.7693 25.7873C17.1185 26.0626 18.3742 25.3356 19.4313 24.5915C21.5086 22.963 23.212 20.9206 24.8686 18.8809C26.8911 16.3094 28.8228 13.6615 30.5495 10.8804C30.5693 16.4579 30.5693 22.0345 30.5495 27.612C27.1599 29.5374 23.3747 31.0598 19.4142 30.9743C17.2255 30.9896 14.8974 30.2968 13.4178 28.6017C12.4057 27.5157 12.0462 25.9933 12.0012 24.5484C11.9644 22.4025 12.7751 20.3457 13.7927 18.494C15.6551 15.3197 18.3122 12.6592 21.31 10.5511C24.0623 8.60851 27.1581 7.10684 30.4578 6.38255Z" fill="white" stroke="white" stroke-width="0.125"/>
<path d="M76.6952 12.2719C78.4795 9.97751 81.5977 9.09037 84.4004 9.46466C85.9006 9.6671 87.3783 10.2528 88.4741 11.3235C89.835 12.6453 90.5406 14.5212 90.724 16.3837C89.2471 16.3927 87.7712 16.3936 86.2961 16.3873C86.0264 15.4713 85.7334 14.4843 84.9118 13.9031C83.5123 13.0555 81.5069 13.3183 80.4237 14.5662C79.8161 15.2176 79.5321 16.1003 79.4197 16.9685C79.3325 18.2228 79.2417 19.54 79.6921 20.7411C80.048 21.667 80.6125 22.5892 81.5276 23.0481C83.0008 23.8192 84.875 23.7445 86.2862 22.8627C87.5446 22.0737 88.4983 20.886 89.2552 19.6246C91.3244 16.327 93.3748 13.0177 95.4601 9.73098C97.5563 9.73008 99.6525 9.72829 101.75 9.73368C101.752 15.5802 101.752 21.4267 101.75 27.2742C100.283 27.2778 98.8174 27.2796 97.3514 27.2751C97.3469 26.2044 97.3487 25.1346 97.3172 24.0657C95.3253 24.0414 93.3298 23.982 91.3397 24.0648C90.5721 24.6325 89.9977 25.427 89.1941 25.9551C87.8646 26.8774 86.2817 27.4244 84.6691 27.5369C82.2781 27.8014 79.7235 27.2994 77.8071 25.7842C76.5109 24.7873 75.6588 23.309 75.1797 21.7641C74.3222 18.5962 74.6044 14.9135 76.6952 12.2719ZM93.381 20.5243C94.7024 20.5324 96.0228 20.5297 97.3451 20.5261C97.3397 18.4144 97.3747 16.3018 97.3163 14.191C95.9599 16.273 94.6961 18.4153 93.381 20.5243Z" fill="white" stroke="white" stroke-width="0.125"/>
<path d="M152.754 9.40974C155.347 9.22889 158.085 10.0683 159.891 11.9974C161.738 13.975 162.356 16.8083 162.156 19.4473C161.996 22.0997 160.713 24.7953 158.41 26.2268C155.695 27.9165 152.112 28.038 149.221 26.7262C147.689 25.9848 146.393 24.7459 145.617 23.228C144.699 21.5653 144.494 19.6065 144.547 17.7378C144.671 15.4668 145.567 13.1986 147.227 11.6132C148.73 10.2402 150.736 9.51231 152.754 9.40974ZM152.757 13.4658C151.552 13.5611 150.446 14.2755 149.854 15.3246C149.05 16.7597 148.994 18.5025 149.29 20.0888C149.48 21.164 150.001 22.2329 150.926 22.8591C152.153 23.7534 153.837 23.7444 155.208 23.2046C156.627 22.6009 157.395 21.0668 157.53 19.5921C157.677 17.8925 157.569 15.9545 156.378 14.612C155.469 13.6313 154.05 13.275 152.757 13.4658Z" fill="white" stroke="white" stroke-width="0.125"/>
<path d="M46.5629 9.73338C48.8101 9.73608 51.0564 9.71898 53.3045 9.73338C55.8537 9.74687 58.4964 10.7834 60.0425 12.8789C61.0852 14.2996 61.6038 16.0433 61.7072 17.7906C61.8249 19.6611 61.5067 21.592 60.6052 23.2493C59.8016 24.6502 58.5683 25.8262 57.0762 26.465C55.6542 27.1488 54.0479 27.2667 52.4946 27.2784C50.5171 27.2856 48.5395 27.273 46.5629 27.2748C46.5602 21.4282 46.5593 15.5808 46.5629 9.73338ZM51.0762 13.5357C51.0258 16.8261 51.0681 20.1173 51.0573 23.4086C51.9813 23.4113 52.9072 23.4464 53.8312 23.3726C54.918 23.2565 55.9463 22.5889 56.4371 21.6019C57.1526 20.3953 57.2281 18.9234 57.0897 17.5611C56.9683 16.3537 56.544 15.0868 55.5535 14.3176C54.2977 13.3216 52.5701 13.5033 51.0762 13.5357Z" fill="white" stroke="white" stroke-width="0.125"/>
<path d="M62.7426 9.73358C66.6878 9.74437 70.6329 9.70118 74.5772 9.75607C74.6159 11.0067 74.6096 12.2583 74.6051 13.5089C72.1484 13.5161 69.6918 13.5053 67.2352 13.5125C67.2334 14.5913 67.2334 15.6692 67.2361 16.7489C69.3925 16.7534 71.5498 16.7462 73.7071 16.7507C73.7071 17.9194 73.7098 19.0891 73.7062 20.2579C71.5489 20.2624 69.3916 20.2552 67.2343 20.2597C67.2334 21.3088 67.2343 22.357 67.2352 23.4061C69.6828 23.4241 72.1305 23.3773 74.5781 23.4322C74.6186 24.7035 74.6177 25.9757 74.5817 27.248C70.6356 27.3128 66.6887 27.2615 62.7426 27.275C62.7399 21.4275 62.739 15.581 62.7426 9.73358Z" fill="white" stroke="white" stroke-width="0.125"/>
<path d="M102.921 9.73279C107.355 9.731 111.788 9.731 116.222 9.73279C116.224 10.9915 116.225 12.2503 116.222 13.5099C114.753 13.5126 113.287 13.509 111.82 13.5117C111.814 18.1004 111.822 22.6882 111.818 27.276C110.319 27.2787 108.823 27.2796 107.326 27.2751C107.32 22.6873 107.328 18.0995 107.323 13.5117C105.855 13.509 104.388 13.5126 102.921 13.5099C102.917 12.2503 102.917 10.9915 102.921 9.73279Z" fill="white" stroke="white" stroke-width="0.125"/>
<path d="M117.303 9.73209C118.8 9.72849 120.296 9.72849 121.794 9.73299C121.801 11.9509 121.791 14.1696 121.798 16.3875C123.834 16.392 125.87 16.3911 127.908 16.3875C127.913 14.1696 127.903 11.9509 127.911 9.73209C129.406 9.72849 130.904 9.72849 132.401 9.73299C132.404 15.5804 132.404 21.4269 132.401 27.2744C130.904 27.2789 129.407 27.2789 127.911 27.2744C127.892 24.9153 127.938 22.5561 127.888 20.1979C125.867 20.1475 123.846 20.152 121.826 20.1934C121.762 22.5525 121.813 24.9135 121.795 27.2744C120.306 27.2744 118.818 27.2978 117.331 27.2555C117.264 21.4144 117.319 15.5732 117.303 9.73209Z" fill="white" stroke="white" stroke-width="0.125"/>
<path d="M133.663 9.73287C135.159 9.72837 136.656 9.72837 138.154 9.73287C138.173 14.3108 138.124 18.8895 138.177 23.4683C140.446 23.5295 142.716 23.4818 144.987 23.4989C144.99 24.7487 144.996 25.9975 144.963 27.2473C141.196 27.312 137.429 27.2617 133.663 27.2743C133.659 21.4268 133.659 15.5803 133.663 9.73287Z" fill="white" stroke="white" stroke-width="0.125"/>
<path d="M163.237 9.7341C164.784 9.7278 166.332 9.7224 167.88 9.74399C169.797 12.93 171.7 16.1259 173.638 19.3002C173.693 16.1115 173.645 12.9219 173.664 9.7323C175.099 9.7296 176.538 9.7287 177.976 9.7323C177.977 15.5797 177.978 21.4272 177.975 27.2746C176.51 27.2782 175.046 27.2818 173.584 27.2728C171.589 23.9293 169.614 20.5742 167.566 17.2649C167.527 20.6012 167.562 23.9383 167.548 27.2755C166.11 27.2782 164.672 27.2791 163.236 27.2755C163.234 21.4281 163.233 15.5815 163.237 9.7341Z" fill="white" stroke="white" stroke-width="0.125"/>
</svg>
