<svg width="144" height="35" viewBox="0 0 144 35" fill="none" xmlns="http://www.w3.org/2000/svg">
<path d="M28.4462 22.4667C29.1187 21.7932 30.2073 21.795 30.8777 22.4706C31.5481 23.1463 31.5463 24.2399 30.8738 24.9134L27.8874 27.9039C25.1323 30.663 20.6396 30.703 17.838 27.9969C17.8218 27.9813 16.5743 26.7546 12.459 22.7076C9.72114 20.0153 9.44838 15.7073 12.0248 12.9409L16.8284 7.78257C19.3854 5.03661 24.0989 4.73649 27.0225 7.10759L31.3854 10.6461C32.1242 11.2454 32.2396 12.3329 31.6431 13.0751C31.0466 13.8174 29.9641 13.9334 29.2253 13.3341L24.8625 9.79559C23.3335 8.55556 20.6589 8.72585 19.3395 10.1427L14.5358 15.301C13.2816 16.6478 13.419 18.8175 14.8644 20.2388C17.8864 23.2106 20.2154 25.5008 20.2181 25.5034C21.6746 26.9103 24.0297 26.8894 25.4598 25.4572L28.4462 22.4667Z" fill="white"/>
<path fill-rule="evenodd" clip-rule="evenodd" d="M21.192 19.4742C20.2424 19.4742 19.4727 18.7008 19.4727 17.7468C19.4727 16.7929 20.2424 16.0195 21.192 16.0195H33.8722C34.8218 16.0195 35.5916 16.7929 35.5916 17.7468C35.5916 18.7008 34.8218 19.4742 33.8722 19.4742H21.192Z" fill="white"/>
<path fill-rule="evenodd" clip-rule="evenodd" d="M23.5662 0.547248C24.215 -0.149384 25.303 -0.185782 25.9964 0.465952C26.6899 1.11769 26.7261 2.21075 26.0774 2.90738L14.5359 15.3011C13.2816 16.6477 13.419 18.8174 14.8643 20.2388L20.1943 25.4804C20.8729 26.1477 20.8845 27.2413 20.2203 27.923C19.556 28.6048 18.4674 28.6164 17.7889 27.9491L12.4588 22.7075C9.72113 20.0151 9.44838 15.7071 12.0249 12.9408L23.5662 0.547248Z" fill="white"/>
<path fill-rule="evenodd" clip-rule="evenodd" d="M45.8161 10.5171V21.8851C45.8161 22.3218 45.9706 22.6951 46.2797 23.005C46.5887 23.3149 46.9609 23.4699 47.3963 23.4699H50.462C50.7288 23.4699 50.9571 23.565 51.1467 23.7551C51.3363 23.9453 51.4312 24.1742 51.4312 24.4419V24.463C51.4312 24.7307 51.3363 24.956 51.1467 25.1392C50.9571 25.3293 50.7288 25.4244 50.462 25.4244H47.3963C46.4201 25.4244 45.5879 25.0793 44.8996 24.3891C44.2113 23.6988 43.8672 22.8642 43.8672 21.8851V10.5171C43.8672 10.2494 43.962 10.0205 44.1516 9.83036C44.3413 9.64723 44.566 9.55566 44.8259 9.55566H44.8575C45.1173 9.55566 45.3421 9.64723 45.5317 9.83036C45.7213 10.0205 45.8161 10.2494 45.8161 10.5171ZM58.0259 15.863C56.9724 15.863 56.0735 16.2363 55.329 16.9829C54.5916 17.7295 54.2229 18.6311 54.2229 19.6876C54.2229 19.8778 54.2369 20.0644 54.265 20.2475L60.9335 17.2259C60.175 16.3173 59.2058 15.863 58.0259 15.863ZM63.2512 17.2576C63.3635 17.4971 63.3741 17.7436 63.2828 17.9972C63.1915 18.2437 63.0229 18.4233 62.7771 18.536C61.7939 18.9797 60.5016 19.5643 58.9003 20.2898C56.9127 21.1914 55.624 21.776 55.034 22.0436C55.7926 23.0156 56.7898 23.5016 58.0259 23.5016C58.8476 23.5016 59.5921 23.2586 60.2593 22.7726C60.9054 22.3007 61.3584 21.6879 61.6183 20.9343C61.7728 20.4976 62.0818 20.2792 62.5453 20.2792C62.8754 20.2792 63.1388 20.4166 63.3354 20.6913C63.5251 20.9589 63.5637 21.2512 63.4513 21.5682C63.058 22.7092 62.3698 23.6319 61.3865 24.3362C60.3822 25.0617 59.262 25.4244 58.0259 25.4244C56.4387 25.4244 55.0832 24.861 53.9595 23.734C52.8358 22.6071 52.2739 21.2477 52.2739 19.6559C52.2739 18.0641 52.8358 16.7047 53.9595 15.5778C55.0832 14.4508 56.4387 13.8874 58.0259 13.8874C59.1707 13.8874 60.2172 14.2008 61.1653 14.8276C62.0994 15.4404 62.7947 16.2504 63.2512 17.2576ZM70.8467 15.863C69.7933 15.863 68.8943 16.2363 68.1498 16.9829C67.4124 17.7295 67.0437 18.6311 67.0437 19.6876C67.0437 19.8778 67.0577 20.0644 67.0858 20.2475L73.7543 17.2259C72.9958 16.3173 72.0266 15.863 70.8467 15.863ZM76.072 17.2576C76.1844 17.4971 76.1949 17.7436 76.1036 17.9972C76.0123 18.2437 75.8437 18.4233 75.5979 18.536C74.6147 18.9797 73.3224 19.5643 71.7211 20.2898C69.7336 21.1914 68.4448 21.776 67.8549 22.0436C68.6134 23.0156 69.6107 23.5016 70.8467 23.5016C71.6685 23.5016 72.4129 23.2586 73.0801 22.7726C73.7262 22.3007 74.1792 21.6879 74.4391 20.9343C74.5936 20.4976 74.9026 20.2792 75.3662 20.2792C75.6962 20.2792 75.9596 20.4166 76.1563 20.6913C76.3459 20.9589 76.3845 21.2512 76.2721 21.5682C75.8788 22.7092 75.1906 23.6319 74.2073 24.3362C73.203 25.0617 72.0828 25.4244 70.8467 25.4244C69.2595 25.4244 67.904 24.861 66.7803 23.734C65.6566 22.6071 65.0948 21.2477 65.0948 19.6559C65.0948 18.0641 65.6566 16.7047 66.7803 15.5778C67.904 14.4508 69.2595 13.8874 70.8467 13.8874C71.9915 13.8874 73.038 14.2008 73.9861 14.8276C74.9202 15.4404 75.6155 16.2504 76.072 17.2576ZM79.2219 9.55566C79.4817 9.55566 79.7065 9.64723 79.8961 9.83036C80.0857 10.0205 80.1805 10.2494 80.1805 10.5171V13.8874H82.0768C82.3367 13.8874 82.5614 13.9824 82.751 14.1726C82.9407 14.3628 83.0355 14.5917 83.0355 14.8593V14.8805C83.0355 15.1481 82.9407 15.3735 82.751 15.5566C82.5614 15.7468 82.3367 15.8419 82.0768 15.8419H80.1805V22.4239C80.1805 22.7127 80.2824 22.9592 80.4861 23.1635C80.6897 23.3678 80.9391 23.4699 81.234 23.4699H82.0768C82.3367 23.4699 82.5614 23.565 82.751 23.7551C82.9407 23.9453 83.0355 24.1742 83.0355 24.4419V24.463C83.0355 24.7307 82.9407 24.956 82.751 25.1392C82.5614 25.3293 82.3367 25.4244 82.0768 25.4244H81.234C80.4053 25.4244 79.696 25.1321 79.106 24.5475C78.5231 23.9559 78.2316 23.248 78.2316 22.4239V10.5171C78.2316 10.2494 78.3264 10.0205 78.5161 9.83036C78.7057 9.64723 78.9304 9.55566 79.1903 9.55566H79.2219ZM92.1586 9.55566C92.8258 9.55566 93.4825 9.63666 94.1286 9.79866C94.6132 9.92544 94.8555 10.2353 94.8555 10.7284V10.7601C94.8555 11.07 94.7291 11.3236 94.4762 11.5208C94.2304 11.7109 93.9565 11.7673 93.6545 11.6898C93.1629 11.563 92.6643 11.4996 92.1586 11.4996C90.5152 11.4996 89.1105 12.0842 87.9447 13.2534C86.7788 14.4227 86.1959 15.8348 86.1959 17.49C86.1959 19.1453 86.7788 20.5574 87.9447 21.7266C89.1105 22.8888 90.5152 23.4699 92.1586 23.4699C92.6643 23.4699 93.1629 23.41 93.6545 23.2903C93.9565 23.2128 94.2304 23.2692 94.4762 23.4593C94.7291 23.6495 94.8555 23.9031 94.8555 24.22V24.2411C94.8555 24.7412 94.6132 25.0547 94.1286 25.1814C93.4825 25.3434 92.8258 25.4244 92.1586 25.4244C89.9744 25.4244 88.1097 24.6497 86.5646 23.1001C85.0195 21.5506 84.247 19.6806 84.247 17.49C84.247 15.2995 85.0195 13.4295 86.5646 11.88C88.1097 10.3304 89.9744 9.55566 92.1586 9.55566ZM101.977 15.863C100.924 15.863 100.025 16.2363 99.2801 16.9829C98.5427 17.7295 98.1739 18.6311 98.1739 19.6876C98.1739 20.7371 98.5427 21.6351 99.2801 22.3817C100.025 23.1283 100.924 23.5016 101.977 23.5016C103.03 23.5016 103.926 23.1283 104.663 22.3817C105.408 21.6351 105.78 20.7371 105.78 19.6876C105.78 18.6311 105.408 17.7295 104.663 16.9829C103.926 16.2363 103.03 15.863 101.977 15.863ZM101.977 13.8874C103.564 13.8874 104.92 14.4508 106.043 15.5778C107.167 16.7047 107.729 18.0641 107.729 19.6559C107.729 21.2477 107.167 22.6071 106.043 23.734C104.92 24.861 103.564 25.4244 101.977 25.4244C100.39 25.4244 99.0343 24.861 97.9106 23.734C96.7869 22.6071 96.225 21.2477 96.225 19.6559C96.225 18.0641 96.7869 16.7047 97.9106 15.5778C99.0343 14.4508 100.39 13.8874 101.977 13.8874ZM114.956 15.863C113.902 15.863 113.003 16.2363 112.259 16.9829C111.521 17.7295 111.153 18.6311 111.153 19.6876C111.153 20.7371 111.521 21.6351 112.259 22.3817C113.003 23.1283 113.902 23.5016 114.956 23.5016C116.009 23.5016 116.905 23.1283 117.642 22.3817C118.387 21.6351 118.759 20.7371 118.759 19.6876C118.759 18.6311 118.387 17.7295 117.642 16.9829C116.905 16.2363 116.009 15.863 114.956 15.863ZM119.749 9.55566C120.009 9.55566 120.234 9.64723 120.423 9.83036C120.613 10.0205 120.708 10.2494 120.708 10.5171V19.6876C120.701 21.2724 120.135 22.6247 119.012 23.7446C117.888 24.8645 116.536 25.4244 114.956 25.4244C113.369 25.4244 112.013 24.861 110.889 23.734C109.766 22.6071 109.204 21.2477 109.204 19.6559C109.204 18.0641 109.766 16.7047 110.889 15.5778C112.013 14.4508 113.369 13.8874 114.956 13.8874C116.403 13.8874 117.67 14.3698 118.759 15.3348V10.5171C118.759 10.2494 118.854 10.0205 119.043 9.83036C119.233 9.64723 119.458 9.55566 119.718 9.55566H119.749ZM128.251 15.863C127.197 15.863 126.298 16.2363 125.554 16.9829C124.816 17.7295 124.448 18.6311 124.448 19.6876C124.448 19.8778 124.462 20.0644 124.49 20.2475L131.158 17.2259C130.4 16.3173 129.431 15.863 128.251 15.863ZM133.476 17.2576C133.588 17.4971 133.599 17.7436 133.508 17.9972C133.416 18.2437 133.248 18.4233 133.002 18.536C132.019 18.9797 130.726 19.5643 129.125 20.2898C127.138 21.1914 125.849 21.776 125.259 22.0436C126.017 23.0156 127.015 23.5016 128.251 23.5016C129.072 23.5016 129.817 23.2586 130.484 22.7726C131.13 22.3007 131.583 21.6879 131.843 20.9343C131.998 20.4976 132.307 20.2792 132.77 20.2792C133.1 20.2792 133.364 20.4166 133.56 20.6913C133.75 20.9589 133.788 21.2512 133.676 21.5682C133.283 22.7092 132.595 23.6319 131.611 24.3362C130.607 25.0617 129.487 25.4244 128.251 25.4244C126.663 25.4244 125.308 24.861 124.184 23.734C123.061 22.6071 122.499 21.2477 122.499 19.6559C122.499 18.0641 123.061 16.7047 124.184 15.5778C125.308 14.4508 126.663 13.8874 128.251 13.8874C129.396 13.8874 130.442 14.2008 131.39 14.8276C132.324 15.4404 133.019 16.2504 133.476 17.2576Z" fill="white"/>
</svg>
