<svg width="115" height="35" viewBox="0 0 115 35" fill="none" xmlns="http://www.w3.org/2000/svg">
<path d="M9.28256 10.5714C10.0006 10.5714 10.5651 10.0065 10.5651 9.28572C10.5651 8.56693 10.0006 8 9.28256 8C8.56554 8 8 8.56693 8 9.28572C8 10.0065 8.56554 10.5714 9.28256 10.5714ZM19.543 10.5714C20.261 10.5714 20.8256 10.0065 20.8256 9.28572C20.8256 8.56693 20.261 8 19.543 8C18.826 8 18.2605 8.56693 18.2605 9.28572C18.2605 10.0065 18.826 10.5714 19.543 10.5714ZM9.28256 14.4286C10.0006 14.4286 10.5651 13.8637 10.5651 13.1429C10.5651 12.4241 10.0006 11.8571 9.28256 11.8571C8.56554 11.8571 8 12.4241 8 13.1429C8 13.8637 8.56554 14.4286 9.28256 14.4286ZM11.8477 14.4286C12.5657 14.4286 13.1302 13.8637 13.1302 13.1429C13.1302 12.4241 12.5657 11.8571 11.8477 11.8571C11.1306 11.8571 10.5651 12.4241 10.5651 13.1429C10.5651 13.8637 11.1306 14.4286 11.8477 14.4286ZM19.543 14.4286C20.261 14.4286 20.8256 13.8637 20.8256 13.1429C20.8256 12.4241 20.261 11.8571 19.543 11.8571C18.826 11.8571 18.2605 12.4241 18.2605 13.1429C18.2605 13.8637 18.826 14.4286 19.543 14.4286ZM9.28256 18.2857C10.0006 18.2857 10.5651 17.7208 10.5651 17C10.5651 16.2812 10.0006 15.7143 9.28256 15.7143C8.56554 15.7143 8 16.2812 8 17C8 17.7208 8.56554 18.2857 9.28256 18.2857ZM14.4128 18.2857C15.1308 18.2857 15.6953 17.7208 15.6953 17C15.6953 16.2812 15.1308 15.7143 14.4128 15.7143C13.6958 15.7143 13.1302 16.2812 13.1302 17C13.1302 17.7208 13.6958 18.2857 14.4128 18.2857ZM19.543 18.2857C20.261 18.2857 20.8256 17.7208 20.8256 17C20.8256 16.2812 20.261 15.7143 19.543 15.7143C18.826 15.7143 18.2605 16.2812 18.2605 17C18.2605 17.7208 18.826 18.2857 19.543 18.2857ZM9.28256 22.1429C10.0006 22.1429 10.5651 21.578 10.5651 20.8571C10.5651 20.1384 10.0006 19.5714 9.28256 19.5714C8.56554 19.5714 8 20.1384 8 20.8571C8 21.578 8.56554 22.1429 9.28256 22.1429ZM16.9779 22.1429C17.6959 22.1429 18.2605 21.578 18.2605 20.8571C18.2605 20.1384 17.6959 19.5714 16.9779 19.5714C16.2609 19.5714 15.6953 20.1384 15.6953 20.8571C15.6953 21.578 16.2609 22.1429 16.9779 22.1429ZM19.543 22.1429C20.261 22.1429 20.8256 21.578 20.8256 20.8571C20.8256 20.1384 20.261 19.5714 19.543 19.5714C18.826 19.5714 18.2605 20.1384 18.2605 20.8571C18.2605 21.578 18.826 22.1429 19.543 22.1429ZM9.28256 26C10.0006 26 10.5651 25.4351 10.5651 24.7143C10.5651 23.9955 10.0006 23.4286 9.28256 23.4286C8.56554 23.4286 8 23.9955 8 24.7143C8 25.4351 8.56554 26 9.28256 26ZM19.543 26C20.261 26 20.8256 25.4351 20.8256 24.7143C20.8256 23.9955 20.261 23.4286 19.543 23.4286C18.826 23.4286 18.2605 23.9955 18.2605 24.7143C18.2605 25.4351 18.826 26 19.543 26ZM27.2282 10.5714C27.9473 10.5714 28.5108 10.0065 28.5108 9.28572C28.5108 8.56693 27.9473 8 27.2282 8C26.5112 8 25.9457 8.56693 25.9457 9.28572C25.9457 10.0065 26.5112 10.5714 27.2282 10.5714ZM29.7934 10.5714C30.5124 10.5714 31.0759 10.0065 31.0759 9.28572C31.0759 8.56693 30.5124 8 29.7934 8C29.0763 8 28.5108 8.56693 28.5108 9.28572C28.5108 10.0065 29.0763 10.5714 29.7934 10.5714ZM32.3585 10.5714C33.0775 10.5714 33.641 10.0065 33.641 9.28572C33.641 8.56693 33.0775 8 32.3585 8C31.6415 8 31.0759 8.56693 31.0759 9.28572C31.0759 10.0065 31.6415 10.5714 32.3585 10.5714ZM24.6631 14.4286C25.3822 14.4286 25.9457 13.8637 25.9457 13.1429C25.9457 12.4241 25.3822 11.8571 24.6631 11.8571C23.9461 11.8571 23.3806 12.4241 23.3806 13.1429C23.3806 13.8637 23.9461 14.4286 24.6631 14.4286ZM34.9236 14.4286C35.6426 14.4286 36.2061 13.8637 36.2061 13.1429C36.2061 12.4241 35.6426 11.8571 34.9236 11.8571C34.2066 11.8571 33.641 12.4241 33.641 13.1429C33.641 13.8637 34.2066 14.4286 34.9236 14.4286ZM24.6631 18.2857C25.3822 18.2857 25.9457 17.7208 25.9457 17C25.9457 16.2812 25.3822 15.7143 24.6631 15.7143C23.9461 15.7143 23.3806 16.2812 23.3806 17C23.3806 17.7208 23.9461 18.2857 24.6631 18.2857ZM34.9236 18.2857C35.6426 18.2857 36.2061 17.7208 36.2061 17C36.2061 16.2812 35.6426 15.7143 34.9236 15.7143C34.2066 15.7143 33.641 16.2812 33.641 17C33.641 17.7208 34.2066 18.2857 34.9236 18.2857ZM24.6631 22.1429C25.3822 22.1429 25.9457 21.578 25.9457 20.8571C25.9457 20.1384 25.3822 19.5714 24.6631 19.5714C23.9461 19.5714 23.3806 20.1384 23.3806 20.8571C23.3806 21.578 23.9461 22.1429 24.6631 22.1429ZM34.9236 22.1429C35.6426 22.1429 36.2061 21.578 36.2061 20.8571C36.2061 20.1384 35.6426 19.5714 34.9236 19.5714C34.2066 19.5714 33.641 20.1384 33.641 20.8571C33.641 21.578 34.2066 22.1429 34.9236 22.1429ZM27.2282 26C27.9473 26 28.5108 25.4351 28.5108 24.7143C28.5108 23.9955 27.9473 23.4286 27.2282 23.4286C26.5112 23.4286 25.9457 23.9955 25.9457 24.7143C25.9457 25.4351 26.5112 26 27.2282 26ZM29.7934 26C30.5124 26 31.0759 25.4351 31.0759 24.7143C31.0759 23.9955 30.5124 23.4286 29.7934 23.4286C29.0763 23.4286 28.5108 23.9955 28.5108 24.7143C28.5108 25.4351 29.0763 26 29.7934 26ZM32.3585 26C33.0775 26 33.641 25.4351 33.641 24.7143C33.641 23.9955 33.0775 23.4286 32.3585 23.4286C31.6415 23.4286 31.0759 23.9955 31.0759 24.7143C31.0759 25.4351 31.6415 26 32.3585 26ZM40.0437 10.5714C40.7627 10.5714 41.3263 10.0065 41.3263 9.28572C41.3263 8.56693 40.7627 8 40.0437 8C39.3267 8 38.7611 8.56693 38.7611 9.28572C38.7611 10.0065 39.3267 10.5714 40.0437 10.5714ZM42.6088 10.5714C43.3279 10.5714 43.8914 10.0065 43.8914 9.28572C43.8914 8.56693 43.3279 8 42.6088 8C41.8918 8 41.3263 8.56693 41.3263 9.28572C41.3263 10.0065 41.8918 10.5714 42.6088 10.5714ZM45.1739 10.5714C45.893 10.5714 46.4565 10.0065 46.4565 9.28572C46.4565 8.56693 45.893 8 45.1739 8C44.4569 8 43.8914 8.56693 43.8914 9.28572C43.8914 10.0065 44.4569 10.5714 45.1739 10.5714ZM47.7391 10.5714C48.4581 10.5714 49.0216 10.0065 49.0216 9.28572C49.0216 8.56693 48.4581 8 47.7391 8C47.022 8 46.4565 8.56693 46.4565 9.28572C46.4565 10.0065 47.022 10.5714 47.7391 10.5714ZM50.3042 10.5714C51.0232 10.5714 51.5867 10.0065 51.5867 9.28572C51.5867 8.56693 51.0232 8 50.3042 8C49.5871 8 49.0216 8.56693 49.0216 9.28572C49.0216 10.0065 49.5871 10.5714 50.3042 10.5714ZM45.1739 14.4286C45.893 14.4286 46.4565 13.8637 46.4565 13.1429C46.4565 12.4241 45.893 11.8571 45.1739 11.8571C44.4569 11.8571 43.8914 12.4241 43.8914 13.1429C43.8914 13.8637 44.4569 14.4286 45.1739 14.4286ZM45.1739 18.2857C45.893 18.2857 46.4565 17.7208 46.4565 17C46.4565 16.2812 45.893 15.7143 45.1739 15.7143C44.4569 15.7143 43.8914 16.2812 43.8914 17C43.8914 17.7208 44.4569 18.2857 45.1739 18.2857ZM45.1739 22.1429C45.893 22.1429 46.4565 21.578 46.4565 20.8571C46.4565 20.1384 45.893 19.5714 45.1739 19.5714C44.4569 19.5714 43.8914 20.1384 43.8914 20.8571C43.8914 21.578 44.4569 22.1429 45.1739 22.1429ZM45.1739 26C45.893 26 46.4565 25.4351 46.4565 24.7143C46.4565 23.9955 45.893 23.4286 45.1739 23.4286C44.4569 23.4286 43.8914 23.9955 43.8914 24.7143C43.8914 25.4351 44.4569 26 45.1739 26ZM55.4243 10.5714C56.1433 10.5714 56.7068 10.0065 56.7068 9.28572C56.7068 8.56693 56.1433 8 55.4243 8C54.7073 8 54.1417 8.56693 54.1417 9.28572C54.1417 10.0065 54.7073 10.5714 55.4243 10.5714ZM65.6847 10.5714C66.4038 10.5714 66.9673 10.0065 66.9673 9.28572C66.9673 8.56693 66.4038 8 65.6847 8C64.9677 8 64.4022 8.56693 64.4022 9.28572C64.4022 10.0065 64.9677 10.5714 65.6847 10.5714ZM55.4243 14.4286C56.1433 14.4286 56.7068 13.8637 56.7068 13.1429C56.7068 12.4241 56.1433 11.8571 55.4243 11.8571C54.7073 11.8571 54.1417 12.4241 54.1417 13.1429C54.1417 13.8637 54.7073 14.4286 55.4243 14.4286ZM65.6847 14.4286C66.4038 14.4286 66.9673 13.8637 66.9673 13.1429C66.9673 12.4241 66.4038 11.8571 65.6847 11.8571C64.9677 11.8571 64.4022 12.4241 64.4022 13.1429C64.4022 13.8637 64.9677 14.4286 65.6847 14.4286ZM55.4243 18.2857C56.1433 18.2857 56.7068 17.7208 56.7068 17C56.7068 16.2812 56.1433 15.7143 55.4243 15.7143C54.7073 15.7143 54.1417 16.2812 54.1417 17C54.1417 17.7208 54.7073 18.2857 55.4243 18.2857ZM57.9894 18.2857C58.7084 18.2857 59.272 17.7208 59.272 17C59.272 16.2812 58.7084 15.7143 57.9894 15.7143C57.2724 15.7143 56.7068 16.2812 56.7068 17C56.7068 17.7208 57.2724 18.2857 57.9894 18.2857ZM60.5545 18.2857C61.2735 18.2857 61.8371 17.7208 61.8371 17C61.8371 16.2812 61.2735 15.7143 60.5545 15.7143C59.8375 15.7143 59.272 16.2812 59.272 17C59.272 17.7208 59.8375 18.2857 60.5545 18.2857ZM63.1196 18.2857C63.8387 18.2857 64.4022 17.7208 64.4022 17C64.4022 16.2812 63.8387 15.7143 63.1196 15.7143C62.4026 15.7143 61.8371 16.2812 61.8371 17C61.8371 17.7208 62.4026 18.2857 63.1196 18.2857ZM65.6847 18.2857C66.4038 18.2857 66.9673 17.7208 66.9673 17C66.9673 16.2812 66.4038 15.7143 65.6847 15.7143C64.9677 15.7143 64.4022 16.2812 64.4022 17C64.4022 17.7208 64.9677 18.2857 65.6847 18.2857ZM55.4243 22.1429C56.1433 22.1429 56.7068 21.578 56.7068 20.8571C56.7068 20.1384 56.1433 19.5714 55.4243 19.5714C54.7073 19.5714 54.1417 20.1384 54.1417 20.8571C54.1417 21.578 54.7073 22.1429 55.4243 22.1429ZM65.6847 22.1429C66.4038 22.1429 66.9673 21.578 66.9673 20.8571C66.9673 20.1384 66.4038 19.5714 65.6847 19.5714C64.9677 19.5714 64.4022 20.1384 64.4022 20.8571C64.4022 21.578 64.9677 22.1429 65.6847 22.1429ZM55.4243 26C56.1433 26 56.7068 25.4351 56.7068 24.7143C56.7068 23.9955 56.1433 23.4286 55.4243 23.4286C54.7073 23.4286 54.1417 23.9955 54.1417 24.7143C54.1417 25.4351 54.7073 26 55.4243 26ZM65.6847 26C66.4038 26 66.9673 25.4351 66.9673 24.7143C66.9673 23.9955 66.4038 23.4286 65.6847 23.4286C64.9677 23.4286 64.4022 23.9955 64.4022 24.7143C64.4022 25.4351 64.9677 26 65.6847 26ZM70.8059 10.5714C71.5229 10.5714 72.0884 10.0065 72.0884 9.28572C72.0884 8.56693 71.5229 8 70.8059 8C70.0868 8 69.5233 8.56693 69.5233 9.28572C69.5233 10.0065 70.0868 10.5714 70.8059 10.5714ZM73.371 10.5714C74.088 10.5714 74.6535 10.0065 74.6535 9.28572C74.6535 8.56693 74.088 8 73.371 8C72.6519 8 72.0884 8.56693 72.0884 9.28572C72.0884 10.0065 72.6519 10.5714 73.371 10.5714ZM75.9361 10.5714C76.6531 10.5714 77.2187 10.0065 77.2187 9.28572C77.2187 8.56693 76.6531 8 75.9361 8C75.2171 8 74.6535 8.56693 74.6535 9.28572C74.6535 10.0065 75.2171 10.5714 75.9361 10.5714ZM73.371 14.4286C74.088 14.4286 74.6535 13.8637 74.6535 13.1429C74.6535 12.4241 74.088 11.8571 73.371 11.8571C72.6519 11.8571 72.0884 12.4241 72.0884 13.1429C72.0884 13.8637 72.6519 14.4286 73.371 14.4286ZM73.371 18.2857C74.088 18.2857 74.6535 17.7208 74.6535 17C74.6535 16.2812 74.088 15.7143 73.371 15.7143C72.6519 15.7143 72.0884 16.2812 72.0884 17C72.0884 17.7208 72.6519 18.2857 73.371 18.2857ZM73.371 22.1429C74.088 22.1429 74.6535 21.578 74.6535 20.8571C74.6535 20.1384 74.088 19.5714 73.371 19.5714C72.6519 19.5714 72.0884 20.1384 72.0884 20.8571C72.0884 21.578 72.6519 22.1429 73.371 22.1429ZM70.8059 26C71.5229 26 72.0884 25.4351 72.0884 24.7143C72.0884 23.9955 71.5229 23.4286 70.8059 23.4286C70.0868 23.4286 69.5233 23.9955 69.5233 24.7143C69.5233 25.4351 70.0868 26 70.8059 26ZM73.371 26C74.088 26 74.6535 25.4351 74.6535 24.7143C74.6535 23.9955 74.088 23.4286 73.371 23.4286C72.6519 23.4286 72.0884 23.9955 72.0884 24.7143C72.0884 25.4351 72.6519 26 73.371 26ZM75.9361 26C76.6531 26 77.2187 25.4351 77.2187 24.7143C77.2187 23.9955 76.6531 23.4286 75.9361 23.4286C75.2171 23.4286 74.6535 23.9955 74.6535 24.7143C74.6535 25.4351 75.2171 26 75.9361 26ZM81.0754 10.5714C81.7945 10.5714 82.358 10.0065 82.358 9.28572C82.358 8.56693 81.7945 8 81.0754 8C80.3584 8 79.7929 8.56693 79.7929 9.28572C79.7929 10.0065 80.3584 10.5714 81.0754 10.5714ZM91.3359 10.5714C92.0549 10.5714 92.6184 10.0065 92.6184 9.28572C92.6184 8.56693 92.0549 8 91.3359 8C90.6188 8 90.0533 8.56693 90.0533 9.28572C90.0533 10.0065 90.6188 10.5714 91.3359 10.5714ZM81.0754 14.4286C81.7945 14.4286 82.358 13.8637 82.358 13.1429C82.358 12.4241 81.7945 11.8571 81.0754 11.8571C80.3584 11.8571 79.7929 12.4241 79.7929 13.1429C79.7929 13.8637 80.3584 14.4286 81.0754 14.4286ZM83.6405 14.4286C84.3596 14.4286 84.9231 13.8637 84.9231 13.1429C84.9231 12.4241 84.3596 11.8571 83.6405 11.8571C82.9235 11.8571 82.358 12.4241 82.358 13.1429C82.358 13.8637 82.9235 14.4286 83.6405 14.4286ZM91.3359 14.4286C92.0549 14.4286 92.6184 13.8637 92.6184 13.1429C92.6184 12.4241 92.0549 11.8571 91.3359 11.8571C90.6188 11.8571 90.0533 12.4241 90.0533 13.1429C90.0533 13.8637 90.6188 14.4286 91.3359 14.4286ZM81.0754 18.2857C81.7945 18.2857 82.358 17.7208 82.358 17C82.358 16.2812 81.7945 15.7143 81.0754 15.7143C80.3584 15.7143 79.7929 16.2812 79.7929 17C79.7929 17.7208 80.3584 18.2857 81.0754 18.2857ZM86.2056 18.2857C86.9247 18.2857 87.4882 17.7208 87.4882 17C87.4882 16.2812 86.9247 15.7143 86.2056 15.7143C85.4886 15.7143 84.9231 16.2812 84.9231 17C84.9231 17.7208 85.4886 18.2857 86.2056 18.2857ZM91.3359 18.2857C92.0549 18.2857 92.6184 17.7208 92.6184 17C92.6184 16.2812 92.0549 15.7143 91.3359 15.7143C90.6188 15.7143 90.0533 16.2812 90.0533 17C90.0533 17.7208 90.6188 18.2857 91.3359 18.2857ZM81.0754 22.1429C81.7945 22.1429 82.358 21.578 82.358 20.8571C82.358 20.1384 81.7945 19.5714 81.0754 19.5714C80.3584 19.5714 79.7929 20.1384 79.7929 20.8571C79.7929 21.578 80.3584 22.1429 81.0754 22.1429ZM88.7707 22.1429C89.4898 22.1429 90.0533 21.578 90.0533 20.8571C90.0533 20.1384 89.4898 19.5714 88.7707 19.5714C88.0537 19.5714 87.4882 20.1384 87.4882 20.8571C87.4882 21.578 88.0537 22.1429 88.7707 22.1429ZM91.3359 22.1429C92.0549 22.1429 92.6184 21.578 92.6184 20.8571C92.6184 20.1384 92.0549 19.5714 91.3359 19.5714C90.6188 19.5714 90.0533 20.1384 90.0533 20.8571C90.0533 21.578 90.6188 22.1429 91.3359 22.1429ZM81.0754 26C81.7945 26 82.358 25.4351 82.358 24.7143C82.358 23.9955 81.7945 23.4286 81.0754 23.4286C80.3584 23.4286 79.7929 23.9955 79.7929 24.7143C79.7929 25.4351 80.3584 26 81.0754 26ZM91.3359 26C92.0549 26 92.6184 25.4351 92.6184 24.7143C92.6184 23.9955 92.0549 23.4286 91.3359 23.4286C90.6188 23.4286 90.0533 23.9955 90.0533 24.7143C90.0533 25.4351 90.6188 26 91.3359 26ZM99.0221 10.5714C99.7391 10.5714 100.305 10.0065 100.305 9.28572C100.305 8.56693 99.7391 8 99.0221 8C98.3031 8 97.7395 8.56693 97.7395 9.28572C97.7395 10.0065 98.3031 10.5714 99.0221 10.5714ZM101.587 10.5714C102.304 10.5714 102.87 10.0065 102.87 9.28572C102.87 8.56693 102.304 8 101.587 8C100.868 8 100.305 8.56693 100.305 9.28572C100.305 10.0065 100.868 10.5714 101.587 10.5714ZM104.152 10.5714C104.869 10.5714 105.435 10.0065 105.435 9.28572C105.435 8.56693 104.869 8 104.152 8C103.433 8 102.87 8.56693 102.87 9.28572C102.87 10.0065 103.433 10.5714 104.152 10.5714ZM106.717 10.5714C107.434 10.5714 108 10.0065 108 9.28572C108 8.56693 107.434 8 106.717 8C105.998 8 105.435 8.56693 105.435 9.28572C105.435 10.0065 105.998 10.5714 106.717 10.5714ZM96.457 14.4286C97.174 14.4286 97.7395 13.8637 97.7395 13.1429C97.7395 12.4241 97.174 11.8571 96.457 11.8571C95.7379 11.8571 95.1744 12.4241 95.1744 13.1429C95.1744 13.8637 95.7379 14.4286 96.457 14.4286ZM96.457 18.2857C97.174 18.2857 97.7395 17.7208 97.7395 17C97.7395 16.2812 97.174 15.7143 96.457 15.7143C95.7379 15.7143 95.1744 16.2812 95.1744 17C95.1744 17.7208 95.7379 18.2857 96.457 18.2857ZM101.587 18.2857C102.304 18.2857 102.87 17.7208 102.87 17C102.87 16.2812 102.304 15.7143 101.587 15.7143C100.868 15.7143 100.305 16.2812 100.305 17C100.305 17.7208 100.868 18.2857 101.587 18.2857ZM104.152 18.2857C104.869 18.2857 105.435 17.7208 105.435 17C105.435 16.2812 104.869 15.7143 104.152 15.7143C103.433 15.7143 102.87 16.2812 102.87 17C102.87 17.7208 103.433 18.2857 104.152 18.2857ZM106.717 18.2857C107.434 18.2857 108 17.7208 108 17C108 16.2812 107.434 15.7143 106.717 15.7143C105.998 15.7143 105.435 16.2812 105.435 17C105.435 17.7208 105.998 18.2857 106.717 18.2857ZM96.457 22.1429C97.174 22.1429 97.7395 21.578 97.7395 20.8571C97.7395 20.1384 97.174 19.5714 96.457 19.5714C95.7379 19.5714 95.1744 20.1384 95.1744 20.8571C95.1744 21.578 95.7379 22.1429 96.457 22.1429ZM106.717 22.1429C107.434 22.1429 108 21.578 108 20.8571C108 20.1384 107.434 19.5714 106.717 19.5714C105.998 19.5714 105.435 20.1384 105.435 20.8571C105.435 21.578 105.998 22.1429 106.717 22.1429ZM99.0221 26C99.7391 26 100.305 25.4351 100.305 24.7143C100.305 23.9955 99.7391 23.4286 99.0221 23.4286C98.3031 23.4286 97.7395 23.9955 97.7395 24.7143C97.7395 25.4351 98.3031 26 99.0221 26ZM101.587 26C102.304 26 102.87 25.4351 102.87 24.7143C102.87 23.9955 102.304 23.4286 101.587 23.4286C100.868 23.4286 100.305 23.9955 100.305 24.7143C100.305 25.4351 100.868 26 101.587 26ZM104.152 26C104.869 26 105.435 25.4351 105.435 24.7143C105.435 23.9955 104.869 23.4286 104.152 23.4286C103.433 23.4286 102.87 23.9955 102.87 24.7143C102.87 25.4351 103.433 26 104.152 26Z" fill="white"/>
</svg>
