<svg width="170" height="35" viewBox="0 0 170 35" fill="none" xmlns="http://www.w3.org/2000/svg">
<path fill-rule="evenodd" clip-rule="evenodd" d="M23.7963 12.2077C24.9244 13.6809 25.86 15.3358 26.5849 17.1203V7.68262H18.6281C20.5422 8.72422 22.2956 10.2481 23.7963 12.2077ZM12.3253 8.6881C10.8513 8.6881 9.43344 9.00546 8.10547 9.5927V26.2953H25.7716C25.6348 16.5542 19.6556 8.6881 12.3253 8.6881Z" fill="white"/>
<path d="M37.1465 23.4184L47.0174 11.382H37.4567V8.75798H50.8415V10.9485L40.9706 22.9852H50.8415V25.6089H37.1465V23.4184ZM54.5218 8.75798H66.9027V11.43H57.4378V15.7631H65.8276V18.4353H57.4378V22.9367H67.0218V25.6087H54.5218V8.75798ZM70.5354 8.75798H77.9925C79.044 8.75798 79.9762 8.9066 80.789 9.20332C81.6019 9.50003 82.2784 9.91337 82.8204 10.4431C83.2664 10.9088 83.6094 11.4462 83.8484 12.0559C84.0875 12.6656 84.2066 13.3401 84.2066 14.078V14.1262C84.2066 14.8164 84.1072 15.4382 83.9081 15.9919C83.7091 16.5456 83.4335 17.0354 83.0833 17.4603C82.7331 17.8853 82.3145 18.247 81.8286 18.5435C81.3426 18.8399 80.8047 19.0693 80.2155 19.2295L84.7325 25.6089H81.2668L77.1433 19.7352H77.0956H73.4511V25.6089H70.5351L70.5354 8.75798ZM77.7673 17.1112C78.8214 17.1112 79.6611 16.8578 80.2839 16.3498C80.9066 15.8418 81.2194 15.1529 81.2194 14.2826V14.2343C81.2194 13.3158 80.9151 12.6184 80.3077 12.1429C79.7003 11.6674 78.8452 11.4297 77.7424 11.4297H73.4511V17.111L77.7673 17.1112ZM95.7987 25.8979C94.5078 25.8979 93.329 25.6693 92.2618 25.2121C91.1946 24.7549 90.278 24.1331 89.5131 23.3461C88.7482 22.5592 88.1508 21.6414 87.7209 20.59C87.2911 19.5386 87.0751 18.4193 87.0751 17.2317V17.1835C87.0751 15.9958 87.2903 14.8765 87.7209 13.8251C88.1516 12.7737 88.7561 11.8511 89.5372 11.0566C90.3182 10.2622 91.2417 9.6324 92.3099 9.16694C93.3781 8.70148 94.556 8.46875 95.8468 8.46875C97.1377 8.46875 98.3166 8.69735 99.3843 9.15481C100.452 9.61227 101.368 10.2343 102.133 11.0205C102.898 11.8067 103.495 12.7257 103.925 13.7769C104.355 14.828 104.571 15.9476 104.571 17.1349V17.1832C104.571 18.3711 104.356 19.4906 103.925 20.5413C103.494 21.5919 102.889 22.5153 102.109 23.3098C101.328 24.1042 100.404 24.7343 99.3361 25.1995C98.2684 25.6647 97.0895 25.8979 95.7987 25.8979ZM95.8466 23.1777C96.6717 23.1777 97.4292 23.0213 98.119 22.7083C98.8089 22.3954 99.4004 21.9704 99.8922 21.4327C100.384 20.895 100.769 20.2649 101.047 19.5427C101.324 18.8206 101.463 18.0501 101.463 17.232V17.1837C101.463 16.3653 101.324 15.591 101.047 14.8605C100.769 14.1301 100.379 13.4967 99.8802 12.959C99.3809 12.4213 98.7815 11.9922 98.0829 11.671C97.3844 11.3497 96.6235 11.1895 95.7984 11.1895C94.9733 11.1895 94.2158 11.3459 93.526 11.6588C92.8361 11.9718 92.2446 12.3973 91.7528 12.9347C91.2609 13.4722 90.8762 14.1022 90.598 14.8244C90.3198 15.5466 90.1817 16.317 90.1817 17.1355V17.1837C90.1817 18.0021 90.3203 18.7764 90.598 19.5064C90.8756 20.2363 91.265 20.871 91.7648 21.4084C92.2646 21.9459 92.8635 22.3755 93.5616 22.6962C94.2596 23.0169 95.0215 23.1777 95.8466 23.1777ZM108.131 8.75798H114.37C115.676 8.75798 116.875 8.97085 117.967 9.39605C119.059 9.82126 119.998 10.4111 120.787 11.1653C121.576 11.9194 122.185 12.8065 122.616 13.8257C123.047 14.8448 123.261 15.9483 123.261 17.1357V17.184C123.261 18.3719 123.046 19.4793 122.616 20.5059C122.186 21.5326 121.576 22.4243 120.787 23.1779C119.998 23.9316 119.058 24.5263 117.967 24.9592C116.876 25.3922 115.676 25.6092 114.37 25.6092H108.131V8.75798ZM114.346 22.9369C115.222 22.9369 116.019 22.7963 116.736 22.514C117.453 22.2318 118.063 21.8375 118.564 21.33C119.065 20.8225 119.456 20.2175 119.735 19.5162C120.014 18.8149 120.154 18.054 120.154 17.2317V17.1835C120.154 16.3614 120.014 15.5961 119.735 14.8871C119.457 14.1781 119.066 13.5697 118.564 13.0619C118.062 12.5542 117.453 12.1553 116.736 11.865C116.019 11.5747 115.222 11.4297 114.346 11.4297H111.047V22.9367L114.346 22.9369ZM126.822 8.75798H129.738V15.7633H137.769V8.75798H140.685V25.6092H137.769V18.5076H129.738V25.6089H126.822V8.75798ZM150.914 8.63749H153.639L161 25.6089H157.893L156.196 21.5406H148.285L146.564 25.6089H143.552L150.914 8.63749ZM155.121 18.9171L152.229 12.1764L149.36 18.9171H155.121Z" fill="white"/>
</svg>
